<svg xmlns="http://www.w3.org/2000/svg" viewBox="-0.00 -0.00 124.00 100.00" width="124.00" height="100.00"><title>KK Tax</title><path fill="#FAF2E9" d="M67.5 27.63 93 7.07 118.5 27.63V94.5H67.5ZM70.71 87H88.72V86.41H88.48Q86.37 86.41 85.08 85.12Q83.79 83.83 83.79 81.72V63.12L100.33 82.95Q101.62 84.48 101.01 85.45Q100.39 86.41 97.93 86.41V87H115.29V86.41Q114.12 86.41 112.89 85.59Q111.66 84.77 110.6 83.48L89.77 58.49L102.21 47.05Q103.33 46.05 104.91 45.32Q106.49 44.58 108.11 44.11Q109.72 43.65 110.89 43.59V43H98.46V43.59H98.51Q101.21 43.59 101.21 45.32Q101.21 47.05 98.81 49.22L83.79 62.83V48.28Q83.79 46.17 85.08 44.88Q86.37 43.59 88.48 43.59H88.72V43H70.71V43.59H70.94Q73.05 43.59 74.34 44.88Q75.63 46.17 75.63 48.28V81.72Q75.63 83.83 74.34 85.12Q73.05 86.41 70.94 86.41H70.71Z"/><path fill="#FAF2E9" d="M8.71 87V86.41H8.94Q11.05 86.41 12.34 85.12Q13.63 83.83 13.63 81.72V48.28Q13.63 46.17 12.34 44.88Q11.05 43.59 8.94 43.59H8.71V43H26.72V43.59H26.48Q24.37 43.59 23.08 44.88Q21.79 46.17 21.79 48.28V62.83L36.81 49.22Q39.21 47.05 39.21 45.32Q39.21 43.59 36.51 43.59H36.46V43H48.89V43.59Q47.72 43.65 46.11 44.11Q44.49 44.58 42.91 45.32Q41.33 46.05 40.21 47.05L27.77 58.49L48.6 83.48Q49.66 84.77 50.89 85.59Q52.12 86.41 53.29 86.41V87H35.93V86.41Q38.39 86.41 39.01 85.45Q39.62 84.48 38.33 82.95L21.79 63.12V81.72Q21.79 83.83 23.08 85.12Q24.37 86.41 26.48 86.41H26.72V87Z"/><path fill="#1D1A17" d="M0 25 31 0 62 25 93 0 124 25V100H0ZM67.5 27.63V94.5H118.5V27.63L93 7.07ZM8.71 87H26.72V86.41H26.48Q24.37 86.41 23.08 85.12Q21.79 83.83 21.79 81.72V63.12L38.33 82.95Q39.62 84.48 39.01 85.45Q38.39 86.41 35.93 86.41V87H53.29V86.41Q52.12 86.41 50.89 85.59Q49.66 84.77 48.6 83.48L27.77 58.49L40.21 47.05Q41.33 46.05 42.91 45.32Q44.49 44.58 46.11 44.11Q47.72 43.65 48.89 43.59V43H36.46V43.59H36.51Q39.21 43.59 39.21 45.32Q39.21 47.05 36.81 49.22L21.79 62.83V48.28Q21.79 46.17 23.08 44.88Q24.37 43.59 26.48 43.59H26.72V43H8.71V43.59H8.94Q11.05 43.59 12.34 44.88Q13.63 46.17 13.63 48.28V81.72Q13.63 83.83 12.34 85.12Q11.05 86.41 8.94 86.41H8.71ZM70.71 87V86.41H70.94Q73.05 86.41 74.34 85.12Q75.63 83.83 75.63 81.72V48.28Q75.63 46.17 74.34 44.88Q73.05 43.59 70.94 43.59H70.71V43H88.72V43.59H88.48Q86.37 43.59 85.08 44.88Q83.79 46.17 83.79 48.28V62.83L98.81 49.22Q101.21 47.05 101.21 45.32Q101.21 43.59 98.51 43.59H98.46V43H110.89V43.59Q109.72 43.65 108.11 44.11Q106.49 44.58 104.91 45.32Q103.33 46.05 102.21 47.05L89.77 58.49L110.6 83.48Q111.66 84.77 112.89 85.59Q114.12 86.41 115.29 86.41V87H97.93V86.41Q100.39 86.41 101.01 85.45Q101.62 84.48 100.33 82.95L83.79 63.12V81.72Q83.79 83.83 85.08 85.12Q86.37 86.41 88.48 86.41H88.72V87Z"/></svg>
